<svg width="130" height="126" viewBox="447 321 130 126" xmlns="http://www.w3.org/2000/svg" xmlns:xlink="http://www.w3.org/1999/xlink"><defs><linearGradient x1="-.777%" y1="49.996%" x2="100.777%" y2="49.996%" id="a"><stop stop-color="#00D688" offset="0%"/><stop stop-color="#0069FF" offset="100%"/></linearGradient><linearGradient x1="49.999%" y1="100.811%" x2="49.999%" y2="-1.044%" id="b"><stop stop-color="#0080FF" offset="15.1%"/><stop stop-color="#00D688" offset="100%"/></linearGradient><linearGradient x1="-.001%" y1="50%" y2="50%" id="c"><stop stop-color="#FFF" stop-opacity=".2" offset="0%"/><stop stop-color="#FFF" stop-opacity=".248" offset="6%"/><stop stop-color="#FFF" offset="100%"/></linearGradient><linearGradient x1="20.886%" y1="80.352%" x2="65.002%" y2="-12.091%" id="d"><stop stop-color="#005AFF" stop-opacity="0" offset="0%"/><stop stop-color="#005AFF" stop-opacity=".3" offset="100%"/></linearGradient><linearGradient x1="0%" y1="7.9%" x2="0%" y2="7.9%" id="e"><stop stop-color="#0080FF" offset="15.1%"/><stop stop-color="#00D688" offset="100%"/></linearGradient><linearGradient x1=".848%" y1="50.005%" x2="75.327%" y2="50.005%" id="f"><stop stop-color="#0069FF" stop-opacity=".5" offset="0%"/><stop stop-color="#0069FF" stop-opacity=".3" offset="21.5%"/><stop stop-color="#0069FF" stop-opacity=".05" offset="100%"/></linearGradient><path id="g" d="M.559.291h22.473v2.466H.559z"/><linearGradient x1="99.998%" y1="50%" x2=".002%" y2="50%" id="h"><stop stop-color="#00D688" offset="0%"/><stop stop-color="#00D28E" offset="11.7%"/><stop stop-color="#00C69E" offset="26.6%"/><stop stop-color="#00B3B8" offset="43.4%"/><stop stop-color="#0099DC" offset="61.3%"/><stop stop-color="#0080FF" offset="75.7%"/></linearGradient><path id="j" d="M.569.136h29.673v2.466H.569z"/><linearGradient x1="99.998%" y1="50.02%" x2="0%" y2="50.02%" id="k"><stop stop-color="#00D688" offset="0%"/><stop stop-color="#00D38C" offset="13.5%"/><stop stop-color="#00CA99" offset="27.5%"/><stop stop-color="#00BBAD" offset="41.7%"/><stop stop-color="#00A6CA" offset="56%"/><stop stop-color="#008BEF" offset="70.4%"/><stop stop-color="#0080FF" offset="75.7%"/></linearGradient><path id="m" d="M.579.188h10.819v2.466H.579z"/><linearGradient x1="86.918%" y1="50%" x2="7.491%" y2="50%" id="n"><stop stop-color="#00D688" offset="0%"/><stop stop-color="#00D38C" offset="13.5%"/><stop stop-color="#00CA99" offset="27.5%"/><stop stop-color="#00BBAD" offset="41.7%"/><stop stop-color="#00A6CA" offset="56%"/><stop stop-color="#008BEF" offset="70.4%"/><stop stop-color="#0080FF" offset="75.7%"/></linearGradient><path id="p" d="M.559.239h37.588v2.466H.559z"/><linearGradient x1="99.998%" y1="50%" x2="0%" y2="50%" id="q"><stop stop-color="#00D688" offset="0%"/><stop stop-color="#00D28E" offset="11.7%"/><stop stop-color="#00C69E" offset="26.6%"/><stop stop-color="#00B3B8" offset="43.4%"/><stop stop-color="#0099DC" offset="61.3%"/><stop stop-color="#0080FF" offset="75.7%"/></linearGradient></defs><g fill="none" fill-rule="evenodd"><path d="M.333 76.453C.333 69.48 28.838 63.828 64 63.828c35.162 0 63.667 5.652 63.667 12.625" stroke="url(#a)" stroke-width="1.978" stroke-linecap="round" stroke-dasharray="0,3.9557" transform="translate(448 322)"/><path d="M463.752 397.226c0-36.276 48.447-74.898 48.447-74.898s48.408 39.856 48.408 74.898c0 26.769-21.678 48.447-48.447 48.447-26.77 0-48.408-21.718-48.408-48.447z" fill="#FFF" fill-rule="nonzero"/><path d="M15.752 75.226C15.752 38.95 64.199.328 64.199.328s48.408 39.856 48.408 74.898c0 26.769-21.678 48.447-48.447 48.447-26.77 0-48.408-21.718-48.408-48.447z" stroke="url(#b)" stroke-width="2" stroke-linecap="round" transform="translate(448 322)"/><path d="M18.258 75.146C18.258 40.859 64 4.384 64 4.384s45.742 37.668 45.742 70.762c0 25.258-20.485 45.742-45.742 45.742-25.257 0-45.742-20.484-45.742-45.742z" fill="url(#c)" fill-rule="nonzero" transform="translate(448 322)"/><path d="M64 81.271c-22.394 0-40.611-2.267-41.049-5.091.994 21.797 18.973 39.179 41.049 39.179s40.055-17.382 41.049-39.179c-.438 2.824-18.655 5.091-41.049 5.091z" fill="url(#d)" fill-rule="nonzero" transform="translate(448 322)"/><path d="M22.951 76.061v-.079.079z" fill="url(#e)" fill-rule="nonzero" transform="translate(448 322)"/><path d="M64 70.89c-22.553 0-40.85 2.307-41.049 5.131v.159c.398 2.824 18.615 5.091 41.049 5.091 22.394 0 40.611-2.267 41.049-5.091v-.159C104.85 73.197 86.553 70.89 64 70.89z" fill="url(#f)" fill-rule="nonzero" transform="translate(448 322)"/><path d="M490.561 379.136H533.4v2.466h-42.839v-2.466zm0-4.948H533.4v2.466h-42.839v-2.466zm0-4.949H533.4v2.466h-42.839v-2.466zm0-4.948H533.4v2.466h-42.839v-2.466z" fill="#0080FF" fill-rule="nonzero" opacity=".16"/><g transform="translate(490 364)"><mask id="i" fill="#fff"><use xlink:href="#g"/></mask><path fill="url(#h)" fill-rule="nonzero" mask="url(#i)" d="M.6.331h42.8v2.426H.6z"/></g><g transform="translate(490 379)"><mask id="l" fill="#fff"><use xlink:href="#j"/></mask><path fill="url(#k)" fill-rule="nonzero" mask="url(#l)" d="M.6.127h42.8v2.467H.6z"/></g><g transform="translate(490 374)"><mask id="o" fill="#fff"><use xlink:href="#m"/></mask><path fill="url(#n)" fill-rule="nonzero" mask="url(#o)" d="M.6.195h42.799v2.466H.6z"/></g><g transform="translate(490 369)"><mask id="r" fill="#fff"><use xlink:href="#p"/></mask><path fill="url(#q)" fill-rule="nonzero" mask="url(#r)" d="M.6.263h42.8v2.466H.6z"/></g><path d="M490.6 366.757v-2.426"/><path d="M127.667 76.453c0 6.973-28.505 12.625-63.667 12.625-35.162 0-63.667-5.652-63.667-12.625" stroke="url(#a)" stroke-width="1.978" stroke-linecap="round" stroke-dasharray="0,3.9557" transform="translate(448 322)"/></g></svg>