<svg id="Layer_1" xmlns="http://www.w3.org/2000/svg" viewBox="0 0 130.2 124"><style>.st0{fill:#fff}.st1{opacity:.5}.st2{fill:url(#SVGID_1_)}.st3{fill:url(#SVGID_2_)}.st4{fill:url(#SVGID_3_)}.st5{fill:url(#SVGID_4_)}.st6{fill:url(#SVGID_5_)}.st7{fill:url(#SVGID_6_)}.st8{fill:url(#SVGID_7_)}.st9{fill:url(#SVGID_8_)}.st10{stroke:url(#SVGID_9_)}.st10,.st11,.st12,.st13,.st14,.st15,.st16,.st17,.st18{fill:none;stroke-width:2;stroke-linecap:round;stroke-miterlimit:10;stroke-dasharray:0,4}.st11{stroke:url(#SVGID_10_)}.st12{stroke:#00d688}.st13{stroke:url(#SVGID_11_)}.st14{stroke:url(#SVGID_12_)}.st15{stroke:url(#SVGID_13_)}.st16{stroke:url(#SVGID_14_)}.st17{stroke:url(#SVGID_15_)}.st18{stroke:#0069ff}.st19{fill:url(#SVGID_16_)}.st20{fill:url(#SVGID_17_)}</style><path class="st0" d="M65.1 120.6l65-21.9-65-21.7L.2 98.7z"/><g class="st1"><linearGradient id="SVGID_1_" gradientUnits="userSpaceOnUse" x1=".2" y1="537.591" x2="130.1" y2="537.591" gradientTransform="translate(0 -447.984)"><stop offset="0" stop-color="#0069FF"/><stop offset="1" stop-color="#00DA88"/></linearGradient><path class="st2" d="M.2 102.2l64.9-21.8 65 21.8v-3.5L65.1 77 .2 98.7z"/></g><linearGradient id="SVGID_2_" gradientUnits="userSpaceOnUse" x1=".2" y1="559.39" x2="130.1" y2="559.39" gradientTransform="translate(0 -447.984)"><stop offset="0" stop-color="#0069FF"/><stop offset="1" stop-color="#00DA88"/></linearGradient><path class="st3" d="M130.1 98.8l-65 21.8L.2 98.8v3.4L65.1 124l65-21.8z"/><g id="Server_1_61_"><path class="st0" d="M8 84.9l57.2 17.4 19.2-4.7v-3.4L27.2 74.9 8 81.5z"/><linearGradient id="SVGID_3_" gradientUnits="userSpaceOnUse" x1="8" y1="535.787" x2="84.26" y2="535.787" gradientTransform="translate(0 -447.984)"><stop offset="0" stop-color="#0069FF"/><stop offset=".086" stop-color="#0069FF"/><stop offset=".233" stop-color="#2687FF"/><stop offset=".425" stop-color="#54A0FF"/><stop offset=".654" stop-color="#93C3FF"/><stop offset=".911" stop-color="#E2EFFF"/><stop offset="1" stop-color="#FFF"/></linearGradient><path class="st4" d="M65.2 100.7l19.2-6.5-57.2-19.3L8 81.5z"/><linearGradient id="SVGID_4_" gradientUnits="userSpaceOnUse" x1="8" y1="540.837" x2="84.26" y2="540.837" gradientTransform="translate(0 -447.984)"><stop offset="0" stop-color="#00DA88"/><stop offset="1" stop-color="#0069FF"/></linearGradient><path class="st5" d="M84.4 94.1l-19.2 6.6L8 81.5v3.4l57.2 19.3 19.2-6.6z"/></g><g id="Server_1_60_"><linearGradient id="SVGID_5_" gradientUnits="userSpaceOnUse" x1="3.072" y1="461.984" x2="80.768" y2="461.984" gradientTransform="translate(0 -447.984)"><stop offset="0" stop-color="#0069FF"/><stop offset=".086" stop-color="#0069FF"/><stop offset=".233" stop-color="#2687FF"/><stop offset=".425" stop-color="#54A0FF"/><stop offset=".654" stop-color="#93C3FF"/><stop offset=".911" stop-color="#E2EFFF"/><stop offset="1" stop-color="#FFF"/></linearGradient><path class="st6" d="M26.4 28L83.7 8.5 57.6 0 .3 19.5z"/><linearGradient id="SVGID_6_" gradientUnits="userSpaceOnUse" x1=".3" y1="467.984" x2="83.7" y2="467.984" gradientTransform="translate(0 -447.984)"><stop offset="0" stop-color="#00DA88"/><stop offset="1" stop-color="#0069FF"/></linearGradient><path class="st7" d="M83.7 8.5L26.4 28 .3 19.5V23l26.1 8.5L83.7 12z"/></g><g id="Server_1_59_"><linearGradient id="SVGID_7_" gradientUnits="userSpaceOnUse" x1="74.5" y1="471.934" x2="130.125" y2="471.934" gradientTransform="translate(0 -447.984)"><stop offset="0" stop-color="#0069FF"/><stop offset=".086" stop-color="#0069FF"/><stop offset=".233" stop-color="#2687FF"/><stop offset=".425" stop-color="#54A0FF"/><stop offset=".654" stop-color="#93C3FF"/><stop offset=".911" stop-color="#E2EFFF"/><stop offset="1" stop-color="#FFF"/></linearGradient><path class="st8" d="M100.6 33.1l29.6-9.8-26.1-8.5-29.6 9.7z"/><linearGradient id="SVGID_8_" gradientUnits="userSpaceOnUse" x1="74.5" y1="477.934" x2="130.125" y2="477.934" gradientTransform="translate(0 -447.984)"><stop offset="0" stop-color="#00DA88"/><stop offset="1" stop-color="#0069FF"/></linearGradient><path class="st9" d="M130.2 23.3l-29.6 9.8-26.1-8.6v3.6l26.1 8.5 29.6-9.8z"/></g><linearGradient id="SVGID_9_" gradientUnits="userSpaceOnUse" x1="128.4" y1="477.683" x2="128.4" y2="544.689" gradientTransform="translate(0 -447.984)"><stop offset="0" stop-color="#00D688"/><stop offset="1" stop-color="#0069FF"/></linearGradient><path class="st10" d="M128.4 30.7v65"/><linearGradient id="SVGID_10_" gradientUnits="userSpaceOnUse" x1="101.5" y1="526.187" x2="101.5" y2="554.99" gradientTransform="translate(0 -447.984)"><stop offset="0" stop-color="#00D688"/><stop offset="1" stop-color="#0069FF"/></linearGradient><path class="st11" d="M101.5 79.2V106"/><path class="st12" d="M101.5 41v12.3"/><linearGradient id="SVGID_11_" gradientUnits="userSpaceOnUse" x1="26.9" y1="482.831" x2="26.9" y2="525.036" gradientTransform="translate(0 -447.984)"><stop offset="0" stop-color="#00D688"/><stop offset="1" stop-color="#0069FF"/></linearGradient><path class="st13" d="M26.9 35.8V76"/><linearGradient id="SVGID_12_" gradientUnits="userSpaceOnUse" x1="46.6" y1="508.619" x2="46.6" y2="527.954" gradientTransform="translate(0 -447.984)"><stop offset="0" stop-color="#00D688"/><stop offset="1" stop-color="#0069FF"/></linearGradient><path class="st14" d="M46.6 61.6V79"/><linearGradient id="SVGID_13_" gradientUnits="userSpaceOnUse" x1="119.1" y1="520.987" x2="119.1" y2="550.79" gradientTransform="translate(0 -447.984)"><stop offset="0" stop-color="#00D688"/><stop offset="1" stop-color="#0069FF"/></linearGradient><path class="st15" d="M119.1 74v27.8"/><linearGradient id="SVGID_14_" gradientUnits="userSpaceOnUse" x1="75.6" y1="517.986" x2="75.6" y2="536.585" gradientTransform="translate(0 -447.984)"><stop offset="0" stop-color="#00D688"/><stop offset="1" stop-color="#0069FF"/></linearGradient><path class="st16" d="M75.6 71v16.6"/><path class="st12" d="M75.6 33.8v14.5"/><linearGradient id="SVGID_15_" gradientUnits="userSpaceOnUse" x1="1" y1="475.683" x2="1" y2="542.671" gradientTransform="translate(0 -447.984)"><stop offset="0" stop-color="#00D688"/><stop offset="1" stop-color="#0069FF"/></linearGradient><path class="st17" d="M1 28.7v64.9"/><path class="st18" d="M65.2 108.2v9.2m18.5-14.8v9.2"/><g id="Server_1_58_"><path class="st0" d="M44 55.6l57.1 17.7 19.1-5.1v-3.5l-57-19.2L44 52.1z"/><linearGradient id="SVGID_16_" gradientUnits="userSpaceOnUse" x1="44" y1="506.387" x2="120.2" y2="506.387" gradientTransform="translate(0 -447.984)"><stop offset="0" stop-color="#0069FF"/><stop offset=".086" stop-color="#0069FF"/><stop offset=".233" stop-color="#2687FF"/><stop offset=".425" stop-color="#54A0FF"/><stop offset=".654" stop-color="#93C3FF"/><stop offset=".911" stop-color="#E2EFFF"/><stop offset="1" stop-color="#FFF"/></linearGradient><path class="st19" d="M101.1 71.3l19.1-6.6-57-19.2L44 52.1z"/><linearGradient id="SVGID_17_" gradientUnits="userSpaceOnUse" x1="44" y1="511.387" x2="120.2" y2="511.387" gradientTransform="translate(0 -447.984)"><stop offset="0" stop-color="#00DA88"/><stop offset="1" stop-color="#0069FF"/></linearGradient><path class="st20" d="M120.2 64.7l-19.1 6.6L44 52.1v3.5l57.1 19.1 19.1-6.5z"/></g></svg>