<svg id="Layer_1" xmlns="http://www.w3.org/2000/svg" viewBox="0 0 142.2 121.4"><style>.st0{fill:none;stroke:#0069ff;stroke-linecap:round;stroke-miterlimit:10}.st1{opacity:.5;fill:#fff;enable-background:new}.st2,.st3{fill:none;stroke-linecap:round;stroke-miterlimit:10}.st2{stroke-width:1.5;stroke:#0069ff}.st3{stroke:url(#SVGID_1_)}.st4{stroke:url(#SVGID_2_)}.st4,.st5,.st6{fill:none;stroke-linecap:round;stroke-miterlimit:10}.st5{opacity:.5;enable-background:new;stroke:#0069ff}.st6{stroke:url(#SVGID_3_);stroke-width:2;stroke-dasharray:0,4}.st7{fill:#0069ff}.st8{fill:#00d688}.st10,.st11,.st9{fill:none;stroke-linecap:round;stroke-miterlimit:10}.st9{stroke-dasharray:0,4;stroke:url(#SVGID_4_);stroke-width:2}.st10,.st11{stroke:#bedcf2;stroke-width:1.6}.st11{stroke:#dfedf8}.st12{stroke:url(#SVGID_5_);stroke-width:2;stroke-dasharray:0,4}.st12,.st13,.st14{fill:none;stroke-linecap:round;stroke-miterlimit:10}.st13{stroke-dasharray:0,4;stroke:url(#SVGID_6_);stroke-width:2}.st14{stroke:#0069ff;stroke-width:2.5}.st15{fill:#fff}.st16{fill:url(#SVGID_7_)}.st17,.st18{fill:none;stroke:url(#SVGID_8_);stroke-width:2;stroke-linecap:round;stroke-miterlimit:10}.st18{stroke:url(#SVGID_9_)}</style><path class="st0" d="M46.2 82.7l22.6-15.8m16.7 19.8L60.4 56.9M35.7 29.1L90 34.4"/><path class="st1" d="M30.6 55.3c0-24.6 32.8-50.8 32.8-50.8s32.8 27 32.8 50.8c0 18.1-14.7 32.8-32.8 32.8-18.1.1-32.8-14.6-32.8-32.8z"/><path class="st2" d="M36.2 89.4l8.5-5.7m45.5 8.8l-7.8-9.8m7.8-48.1l37.9 5.1m-108-12.4L40 29.4"/><linearGradient id="SVGID_1_" gradientUnits="userSpaceOnUse" x1="1.548" y1="501.427" x2="120.685" y2="501.427" gradientTransform="translate(0 -452.781)"><stop offset="0" stop-color="#0069FF" stop-opacity=".6"/><stop offset=".297" stop-color="#0069FF" stop-opacity="0"/><stop offset=".691" stop-color="#0069FF" stop-opacity="0"/><stop offset="1" stop-color="#0069FF" stop-opacity=".6"/></linearGradient><path class="st3" d="M2.3 72C-.6 64 23.4 48 56 36.4s61.2-14.6 64.2-6.5"/><linearGradient id="SVGID_2_" gradientUnits="userSpaceOnUse" x1="12.558" y1="501.562" x2="109.185" y2="501.562" gradientTransform="translate(0 -452.781)"><stop offset="0" stop-color="#0069FF" stop-opacity=".6"/><stop offset=".297" stop-color="#0069FF" stop-opacity="0"/><stop offset=".691" stop-color="#0069FF" stop-opacity="0"/><stop offset="1" stop-color="#0069FF" stop-opacity=".6"/></linearGradient><path class="st4" d="M13.2 67.2c-1.9-5.5 17.8-17.6 44.2-27 26.3-9.4 49.3-12.6 51.3-7.1"/><path class="st5" d="M36.2 89.4L34.5 119"/><linearGradient id="SVGID_3_" gradientUnits="userSpaceOnUse" x1="-144.93" y1="458.814" x2="-120.156" y2="458.814" gradientTransform="matrix(.9969 -.07826 .07826 .9969 115.088 -377.238)"><stop offset="0" stop-color="#00D688"/><stop offset="1" stop-color="#0069FF"/></linearGradient><path class="st6" d="M7.5 91.2l22.7-1.3"/><ellipse transform="rotate(-13.239 36.077 89.38)" class="st7" cx="36.1" cy="89.4" rx="2.3" ry="2.3"/><ellipse transform="rotate(-13.239 34.39 119.103)" class="st7" cx="34.4" cy="119.1" rx="2.3" ry="2.3"/><ellipse transform="rotate(-63.043 2 91.418)" class="st8" cx="2" cy="91.4" rx="2" ry="2"/><linearGradient id="SVGID_4_" gradientUnits="userSpaceOnUse" x1="94.685" y1="537.608" x2="108.263" y2="537.608" gradientTransform="translate(0 -452.781)"><stop offset="0" stop-color="#0069FF"/><stop offset="1" stop-color="#00D688"/></linearGradient><path class="st9" d="M95.7 89.3l11.5-8.9"/><path class="st5" d="M90.5 93.6l27.7 15.3"/><path class="st8" d="M108.2 78.7c-1.5-3.3 2.4-5.8 4.7-3 1.5 3.3-2.4 5.7-4.7 3z"/><ellipse transform="rotate(-51.945 118.155 108.909)" class="st7" cx="118.2" cy="108.9" rx="2.4" ry="2.4"/><ellipse transform="rotate(-54.269 90.462 93.476)" class="st7" cx="90.5" cy="93.5" rx="2.4" ry="2.4"/><linearGradient id="SVGID_5_" gradientUnits="userSpaceOnUse" x1="14.985" y1="476.684" x2="14.985" y2="458.908" gradientTransform="translate(0 -452.781)"><stop offset="0" stop-color="#0069FF"/><stop offset="1" stop-color="#00D688"/></linearGradient><path class="st12" d="M17.7 22.9L12.2 7.1"/><ellipse transform="rotate(-43.12 10.883 2.6)" class="st8" cx="10.9" cy="2.6" rx="2.6" ry="2.6"/><linearGradient id="SVGID_6_" gradientUnits="userSpaceOnUse" x1="128.485" y1="478.908" x2="138.498" y2="478.908" gradientTransform="translate(0 -452.781)"><stop offset="0" stop-color="#0069FF"/><stop offset="1" stop-color="#00D688"/></linearGradient><path class="st13" d="M129.5 35.6l8-19"/><path class="st5" d="M127.5 39.9l2.5 26"/><ellipse transform="rotate(-1.281 130.025 65.89) scale(1.00005)" class="st7" cx="130" cy="65.9" rx="2.4" ry="2.4"/><ellipse transform="rotate(-54.269 20.036 27.724)" class="st7" cx="20" cy="27.7" rx="2.4" ry="2.4"/><ellipse transform="rotate(-54.269 127.532 39.974)" class="st7" cx="127.5" cy="40" rx="2.4" ry="2.4"/><path class="st14" d="M30.6 55.3c0-24.6 32.8-50.8 32.8-50.8s32.8 27 32.8 50.8c0 18.1-14.7 32.8-32.8 32.8-18.1.1-32.8-14.6-32.8-32.8z"/><path class="st15" d="M63.3 79.6c-13.4 0-24.4-11-24.4-24.5 0-17.6 22.3-35.6 23.2-36.4l1.3-1 1.3 1c1 .8 23.2 19.4 23.2 36.4 0 13.5-11 24.5-24.6 24.5z"/><linearGradient id="SVGID_7_" gradientUnits="userSpaceOnUse" x1="43.911" y1="492.064" x2="86.563" y2="516.689" gradientTransform="translate(0 -452.781)"><stop offset="0" stop-color="#0069FF"/><stop offset="1" stop-color="#0069FF" stop-opacity=".2"/></linearGradient><path class="st16" d="M63.3 79.6c-13.4 0-24.4-11-24.4-24.5 0-17.6 22.3-35.6 23.2-36.4l1.3-1 1.3 1c1 .8 23.2 19.4 23.2 36.4 0 13.5-11 24.5-24.6 24.5z"/><linearGradient id="SVGID_8_" gradientUnits="userSpaceOnUse" x1="1.285" y1="505.89" x2="121.323" y2="505.89" gradientTransform="translate(0 -452.781)"><stop offset="0" stop-color="#0069FF" stop-opacity=".6"/><stop offset=".5" stop-color="#0069FF"/><stop offset="1" stop-color="#0069FF" stop-opacity=".6"/></linearGradient><path class="st17" d="M120.1 29.8c2.9 8-21.1 24-53.7 35.6S5.2 80 2.3 71.9"/><linearGradient id="SVGID_9_" gradientUnits="userSpaceOnUse" x1="12.285" y1="504.788" x2="110.025" y2="504.788" gradientTransform="translate(0 -452.781)"><stop offset="0" stop-color="#0069FF" stop-opacity=".6"/><stop offset=".5" stop-color="#0069FF"/><stop offset="1" stop-color="#0069FF" stop-opacity=".6"/></linearGradient><path class="st18" d="M108.9 33.5c2 5.8-17.7 18.1-44.1 27.5s-49.5 12.4-51.5 6.6"/><path class="st8" d="M136.8 11.7c.1-2.2 2.6-3.5 4.5-2 .4.3.7.8.9 1.3.6 2.3-1.5 3.9-3.5 3.3-1.2-.4-2-1.5-1.9-2.6z"/></svg>