<svg id="Layer_1" xmlns="http://www.w3.org/2000/svg" viewBox="0 0 131.1 142"><style>.st0{fill:url(#SVGID_1_)}.st1,.st2,.st3{fill:none;stroke-width:2;stroke-miterlimit:10}.st1{stroke:#fff}.st2,.st3{stroke-linecap:round}.st2{stroke-dasharray:0,4;stroke:url(#SVGID_2_)}.st3{stroke:url(#SVGID_3_)}</style><linearGradient id="SVGID_1_" gradientUnits="userSpaceOnUse" x1="65.4" y1="418.289" x2="65.4" y2="545.919" gradientTransform="translate(0 -400.695)"><stop offset="0" stop-color="#0069FF"/><stop offset="1" stop-color="#0069FF" stop-opacity="0"/></linearGradient><path class="st0" d="M8.3 15.9h114.2v125.9H8.3z"/><path class="st1" d="M49.6 32.2h30.5m-56.6 0h17.4m-17.4 7.6H67m0 7.7h13.1m-56.6 0h35.9M67 76.8h13.1m-56.6 0h35.9M23.5 61.6h26.1m0 7.6h20.7m-46.8 0h17.4M49.6 91h30.5m-56.6 0h17.4M67 106.2h13.1m-56.6 0h35.9m7.6 29.4h13.1m-56.6 0h35.9m-35.9-15.3h26.1m0 7.6h20.7m-46.8 0h17.4M67 141h13.1m-56.6 0h35.9"/><linearGradient id="SVGID_2_" gradientUnits="userSpaceOnUse" x1="9.5" y1="410.095" x2="66.978" y2="410.095" gradientTransform="translate(0 -400.695)"><stop offset="0" stop-color="#00D688"/><stop offset="1" stop-color="#0069FF"/></linearGradient><path class="st2" d="M10.5 9.4h55.4"/><linearGradient id="SVGID_3_" gradientUnits="userSpaceOnUse" x1="65.552" y1="400.693" x2="65.552" y2="500.897" gradientTransform="translate(0 -400.695)"><stop offset="0" stop-color="#00D688"/><stop offset="1" stop-color="#0069FF"/></linearGradient><path class="st3" d="M1 1l128.5.3.6 97.9L1.3 99z"/></svg>