<svg id="Layer_1" xmlns="http://www.w3.org/2000/svg" viewBox="0 0 135.8 142.5"><style>.st0{fill:none;stroke:#00d688;stroke-width:1.5;stroke-miterlimit:10}.st1{stroke:#0069ff;stroke-linecap:round}.st1,.st2,.st3{fill:none;stroke-width:1.5;stroke-miterlimit:10}.st2{stroke-linecap:round;stroke:#00d688}.st3{stroke:#0069ff}.st4{fill:#fff}.st5,.st6{fill:none;stroke:url(#SVGID_1_);stroke-width:2;stroke-linecap:round;stroke-miterlimit:10}.st6{stroke:url(#SVGID_2_);stroke-dasharray:0,4}.st7{fill:url(#SVGID_3_)}.st8{fill:none;stroke:url(#SVGID_4_);stroke-width:2.5;stroke-linecap:round;stroke-miterlimit:10}.st9{fill:#0069ff}.st10{fill:none;stroke:url(#SVGID_5_);stroke-linecap:round;stroke-miterlimit:10}.st10,.st11,.st12{stroke-width:2.5}.st11,.st12,.st13,.st14{fill:none;stroke-linecap:round;stroke-miterlimit:10}.st11{stroke:url(#SVGID_6_)}.st12{stroke:url(#SVGID_7_)}.st13{stroke:url(#SVGID_8_);stroke-width:1.5}.st14{stroke:#00d688;stroke-width:2.5}</style><path class="st0" d="M66.4 79.8c34.7-1.1 63.1 1.3 67.7 11.9"/><path class="st3" d="M30.5 27.2C28 21.8 51.2 15.6 67.2 14.9M7.8 58.8c-3-8.6 27.4-18.8 60.6-19.6M1.1 94.4C-3.1 82.8 28.4 70 71 71.9"/><path class="st0" d="M53.1 44.4c38.7-7.5 71-2.2 75 9.1M70.4 14.6c15.9-.5 34.9 1.7 36.4 8.4"/><path class="st4" d="M13.5 86.3c0-41.4 55.2-81.7 55.2-81.7s55.2 41.8 55.2 81.7c0 30.5-24.8 55.2-55.2 55.2s-55.2-24.8-55.2-55.2z"/><linearGradient id="SVGID_1_" gradientUnits="userSpaceOnUse" x1="81.99" y1="-3.092" x2="-15.331" y2="53.096"><stop offset="0" stop-color="#00D688"/><stop offset="1" stop-color="#0069FF"/></linearGradient><linearGradient id="SVGID_2_" gradientUnits="userSpaceOnUse" x1="113.537" y1="51.55" x2="16.216" y2="107.738"><stop offset="0" stop-color="#00D688"/><stop offset="1" stop-color="#0069FF"/></linearGradient><path class="st6" d="M71.9 7l.3.2c12.1 10 51.8 45.1 51.8 79 0 30.5-24.8 55.2-55.2 55.2s-55.2-24.8-55.2-55.2C13.5 49.2 66.9 6 66.9 6l.2-.2"/><linearGradient id="SVGID_3_" gradientUnits="userSpaceOnUse" x1="30.617" y1="510.679" x2="111.021" y2="563.036" gradientTransform="translate(0 -456.206)"><stop offset="0" stop-color="#0069FF"/><stop offset=".128" stop-color="#0069FF" stop-opacity=".885"/><stop offset=".587" stop-color="#0069FF" stop-opacity=".472"/><stop offset="1" stop-color="#0069FF" stop-opacity=".1"/></linearGradient><path class="st7" d="M20.6 86.1C20.6 50 68.7 15 68.7 15s48.1 36.5 48.1 71.1c0 26.6-21.5 48.1-48.1 48.1s-48.1-21.6-48.1-48.1z"/><linearGradient id="SVGID_4_" gradientUnits="userSpaceOnUse" x1="74.309" y1="-386.746" x2="135.915" y2="-386.746" gradientTransform="matrix(1 0 0 -1 0 -276.12)"><stop offset=".57" stop-color="#0069FF"/><stop offset="1" stop-color="#00D688"/></linearGradient><path class="st8" d="M134.6 92.3c1.1 11.6-29.2 28.9-59.1 36.7"/><path class="st9" d="M71.6 128.4c.3-2.2 2.4-3.8 4.6-3.4 2.4.3 3.8 2.4 3.4 4.4-.3 2-2.4 3.8-4.6 3.4-2.3-.2-3.7-2.2-3.4-4.4z"/><linearGradient id="SVGID_5_" gradientUnits="userSpaceOnUse" x1="29.684" y1="472.726" x2="98.686" y2="472.726" gradientTransform="translate(0 -456.206)"><stop offset=".352" stop-color="#0069FF"/><stop offset="1" stop-color="#00D688"/></linearGradient><path class="st10" d="M97.4 3.6c-22 20.1-62 29.9-66.5 24.2"/><linearGradient id="SVGID_6_" gradientUnits="userSpaceOnUse" x1=".199" y1="-354.861" x2="129.968" y2="-354.861" gradientTransform="matrix(1 0 0 -1 0 -276.12)"><stop offset=".57" stop-color="#0069FF"/><stop offset="1" stop-color="#00D688"/></linearGradient><path class="st11" d="M128.2 54.1c4.4 11.3-20.6 29.7-55.5 41.1s-67.4 10.4-71.3.2"/><linearGradient id="SVGID_7_" gradientUnits="userSpaceOnUse" x1="6.44" y1="-320.414" x2="108.553" y2="-320.414" gradientTransform="matrix(1 0 0 -1 0 -276.12)"><stop offset=".57" stop-color="#0069FF"/><stop offset="1" stop-color="#00D688"/></linearGradient><path class="st12" d="M106.9 23.9C110.3 32 91 46.5 63.6 56.4s-53.4 10.7-56 3.2"/><linearGradient id="SVGID_8_" gradientUnits="userSpaceOnUse" x1="-11.138" y1="-336.654" x2="129.494" y2="-336.654" gradientTransform="matrix(1 0 0 -1 0 -276.12)"><stop offset="0" stop-color="#0069FF"/><stop offset=".155" stop-color="#0069FF"/><stop offset=".322" stop-color="#0069FF"/><stop offset=".476" stop-color="#0069FF"/><stop offset=".605" stop-color="#0069FF"/><stop offset=".71" stop-color="#0069FF"/><stop offset=".779" stop-color="#0069FF"/><stop offset=".839" stop-color="#0088E4"/><stop offset=".892" stop-color="#009ACF"/><stop offset=".942" stop-color="#00B1B4"/><stop offset=".988" stop-color="#00CD92"/><stop offset="1" stop-color="#00D688"/></linearGradient><path class="st14" d="M89.5 2.7l9.6-1.2-1.3 9.6"/></svg>