<svg width="132" height="124" viewBox="446 322 132 124" xmlns="http://www.w3.org/2000/svg" xmlns:xlink="http://www.w3.org/1999/xlink"><defs><path id="a" d="M54.28 73.719l72.927-42.568L73.72.281.793 42.848z"/><linearGradient x1="-151.4%" y1="50%" x2="5823.3%" y2="50%" id="c"><stop stop-color="#005AFF" stop-opacity="0" offset="0%"/><stop stop-color="#005AFF" stop-opacity=".3" offset="100%"/></linearGradient><linearGradient x1="-30.771%" y1="35.9%" x2="262.494%" y2="35.9%" id="d"><stop stop-color="#005AFF" stop-opacity="0" offset="0%"/><stop stop-color="#005AFF" stop-opacity=".3" offset="100%"/></linearGradient><linearGradient x1="-2849.4%" y1="50.002%" x2="3125.3%" y2="50.002%" id="e"><stop stop-color="#005AFF" stop-opacity="0" offset="0%"/><stop stop-color="#005AFF" stop-opacity=".3" offset="100%"/></linearGradient><linearGradient x1="-152.467%" y1="49.967%" x2="129.106%" y2="49.967%" id="f"><stop stop-color="#005AFF" stop-opacity="0" offset="0%"/><stop stop-color="#005AFF" stop-opacity=".3" offset="100%"/></linearGradient><linearGradient x1="-5712.9%" y1="49.975%" x2="261.8%" y2="49.975%" id="g"><stop stop-color="#005AFF" stop-opacity="0" offset="0%"/><stop stop-color="#005AFF" stop-opacity=".3" offset="100%"/></linearGradient><linearGradient x1="-1.576%" y1="50%" x2="101.576%" y2="50%" id="h"><stop stop-color="#005AFF" stop-opacity="0" offset="0%"/><stop stop-color="#005AFF" stop-opacity=".3" offset="100%"/></linearGradient><linearGradient x1="0%" y1="49.999%" y2="49.999%" id="i"><stop stop-color="#005AFF" stop-opacity="0" offset="0%"/><stop stop-color="#005AFF" stop-opacity=".3" offset="100%"/></linearGradient><linearGradient x1=".001%" y1="50.004%" x2="100.001%" y2="50.004%" id="j"><stop stop-color="#0069FF" offset="0%"/><stop stop-color="#00DA88" offset="100%"/></linearGradient><linearGradient x1="-1.576%" y1="50%" x2="101.576%" y2="50%" id="k"><stop stop-color="#0080FF" offset="15.1%"/><stop stop-color="#00D688" offset="100%"/></linearGradient><linearGradient x1="-151.4%" y1="50%" x2="5823.3%" y2="50%" id="l"><stop stop-color="#00D688" offset="0%"/><stop stop-color="#0069FF" offset="100%"/></linearGradient><linearGradient x1="-30.771%" y1="35.9%" x2="262.494%" y2="35.9%" id="m"><stop stop-color="#00D688" offset="0%"/><stop stop-color="#0069FF" offset="100%"/></linearGradient><linearGradient x1="-152.467%" y1="50.033%" x2="129.106%" y2="50.033%" id="n"><stop stop-color="#00D688" offset="0%"/><stop stop-color="#0069FF" offset="100%"/></linearGradient><linearGradient x1="-5712.9%" y1="50%" x2="261.8%" y2="50%" id="o"><stop stop-color="#00D688" offset="0%"/><stop stop-color="#0069FF" offset="100%"/></linearGradient><linearGradient x1="-1.231%" y1="50%" x2="101.231%" y2="50%" id="p"><stop stop-color="#005AFF" stop-opacity="0" offset="0%"/><stop stop-color="#005AFF" stop-opacity=".3" offset="100%"/></linearGradient></defs><g fill="none" fill-rule="evenodd"><path d="M502.28 423.719l72.927-42.568-53.487-30.87-72.927 42.567z" fill-rule="nonzero" fill="#FFF"/><g transform="translate(448 350)"><mask id="b" fill="#fff"><use xlink:href="#a"/></mask><g mask="url(#b)" stroke-linecap="round" stroke-width="1.978"><path d="M.514 43.923l.788-6.33" stroke="url(#c)" stroke-dasharray="0,4.2524" transform="translate(33 12)"/><path d="M5.269 35.614l20.373.719" stroke="url(#d)" stroke-dasharray="0,3.7065" transform="translate(33 12)"/><path d="M27.494 32.356V6.083" stroke="url(#e)" stroke-dasharray="0,4.042" transform="translate(33 12)"/><path d="M31.352 4.335l21.219 1.499" stroke="url(#f)" stroke-dasharray="0,3.8676" transform="translate(33 12)"/><path d="M56.129 2.042l.815-1.963" stroke="url(#g)" stroke-dasharray="0,4.2522" transform="translate(33 12)"/></g></g><path d="M54.28 73.719l72.927-42.568L73.72.281.793 42.848z" transform="translate(448 350)" stroke-linecap="round" stroke-width="2" stroke="url(#h)"/><path fill="url(#i)" fill-rule="nonzero" d="M54.37 124l72.747-42.557-53.488-30.87L.883 93.129z" transform="translate(448 322)"/><path d="M510.997 328.974l9.767-5.75a.303.303 0 0 0-.006-.524l-.913-.515a1.434 1.434 0 0 0-1.436.016l-9.767 5.75c-.2.119-.197.41.006.524l.913.515c.447.253.995.246 1.436-.016z" fill="#FFF" fill-rule="nonzero"/><path d="M62.997 6.974l9.767-5.75A.303.303 0 0 0 72.758.7l-.913-.515a1.434 1.434 0 0 0-1.436.016l-9.767 5.75c-.2.119-.197.41.006.524l.913.515c.447.253.995.246 1.436-.016z" fill="url(#j)" fill-rule="nonzero" transform="translate(448 322)"/><path d="M502.28 400.947l72.927-42.567-53.487-30.871-72.927 42.568z" fill-rule="nonzero" fill="#FFF"/><path d="M54.28 73.947l72.927-42.567L73.72.509.793 43.077z" transform="translate(448 327)" stroke-linecap="round" stroke-width="2" stroke="url(#k)"/><path d="M33.514 61.151l.788-6.33" stroke="url(#l)" stroke-width="1.978" stroke-linecap="round" stroke-dasharray="0,4.2524" transform="translate(448 322)"/><path d="M38.269 52.842l20.373.719" stroke="url(#m)" stroke-width="1.978" stroke-linecap="round" stroke-dasharray="0,3.7065" transform="translate(448 322)"/><path d="M508 371.584v-26.273" stroke="#00A3C1" stroke-width="2" stroke-linecap="round" stroke-dasharray="0,4.042"/><path d="M64.352 21.563l21.219 1.499" stroke="url(#n)" stroke-width="1.978" stroke-linecap="round" stroke-dasharray="0,3.8676" transform="translate(448 322)"/><path d="M89.129 19.271l.815-1.964" stroke="url(#o)" stroke-width="1.978" stroke-linecap="round" stroke-dasharray="0,4.2522" transform="translate(448 322)"/><path d="M53.49 70.996l60.919-35.558" stroke="url(#p)" stroke-width="1.5" stroke-linecap="round" transform="translate(448 322)"/></g></svg>