<svg id="Layer_1" xmlns="http://www.w3.org/2000/svg" xmlns:xlink="http://www.w3.org/1999/xlink" viewBox="0 0 144.8 142.5"><style>.st0{fill:#fff}.st1{clip-path:url(#SVGID_2_);fill:url(#SVGID_3_)}.st2{clip-path:url(#SVGID_5_);fill:url(#SVGID_6_)}.st3,.st4,.st5,.st6{fill:none;stroke-miterlimit:10}.st3{stroke-linecap:round;stroke:url(#SVGID_7_);stroke-width:2.5}.st4,.st5,.st6{stroke:#0069ff;stroke-width:2}.st5,.st6{stroke:url(#SVGID_8_);stroke-linecap:round;stroke-dasharray:0,4}.st6{stroke:url(#SVGID_9_)}.st7{stroke:url(#SVGID_10_)}.st7,.st8,.st9{fill:none;stroke-width:2;stroke-linecap:round;stroke-miterlimit:10}.st8{stroke-dasharray:0,3.9828;stroke:url(#SVGID_11_)}.st9{stroke:url(#SVGID_12_)}.st10{stroke:url(#SVGID_13_)}.st10,.st11,.st12{fill:none;stroke-width:2;stroke-linecap:round;stroke-miterlimit:10}.st11{stroke-dasharray:0,3.9828;stroke:url(#SVGID_14_)}.st12{stroke:url(#SVGID_15_)}.st13{clip-path:url(#SVGID_17_);fill:url(#SVGID_18_)}.st14{clip-path:url(#SVGID_20_);fill:url(#SVGID_21_)}.st15{fill:none;stroke:url(#SVGID_22_);stroke-width:2.5;stroke-linecap:round;stroke-miterlimit:10}</style><path class="st0" d="M31.9 7.2c13.6 0 24.8 11.2 24.8 24.8S45.5 56.8 31.9 56.8 7 45.6 7 31.9 18.2 7.2 31.9 7.2m0-5.8C15 1.4 1.2 15 1.2 31.9S15 62.5 31.9 62.5s30.6-13.7 30.6-30.6S48.8 1.4 31.9 1.4z"/><defs><circle id="SVGID_1_" cx="31.9" cy="31.9" r="30.6"/></defs><clipPath id="SVGID_2_"><use xlink:href="#SVGID_1_" overflow="visible"/></clipPath><linearGradient id="SVGID_3_" gradientUnits="userSpaceOnUse" x1="6.642" y1="394.887" x2="57.179" y2="394.887" gradientTransform="translate(0 -345.41)"><stop offset="0" stop-color="#0069FF"/><stop offset="1" stop-color="#0069FF" stop-opacity=".2"/></linearGradient><path class="st1" d="M31.8 36.8c-10.7 0-25.2 6.8-25.1 25.4l50.4-.2c0-18.5-14.5-25.2-25.3-25.2z"/><defs><circle id="SVGID_4_" cx="31.9" cy="31.9" r="30.6"/></defs><clipPath id="SVGID_5_"><use xlink:href="#SVGID_4_" overflow="visible"/></clipPath><linearGradient id="SVGID_6_" gradientUnits="userSpaceOnUse" x1="19.259" y1="372.096" x2="44.96" y2="372.096" gradientTransform="translate(0 -345.41)"><stop offset="0" stop-color="#0069FF"/><stop offset="1" stop-color="#0069FF" stop-opacity=".2"/></linearGradient><circle class="st2" cx="32.1" cy="26.7" r="12.8"/><path class="st0" d="M31.9 7.2c13.6 0 24.8 11.2 24.8 24.8S45.5 56.8 31.9 56.8 7 45.6 7 31.9 18.2 7.2 31.9 7.2m0-5.8C15 1.4 1.2 15 1.2 31.9S15 62.5 31.9 62.5s30.6-13.7 30.6-30.6S48.8 1.4 31.9 1.4z"/><linearGradient id="SVGID_7_" gradientUnits="userSpaceOnUse" y1="377.285" x2="63.849" y2="377.285" gradientTransform="translate(0 -345.41)"><stop offset="0" stop-color="#0069FF"/><stop offset="1" stop-color="#00D688"/></linearGradient><circle class="st3" cx="31.9" cy="31.9" r="30.6"/><path class="st4" d="M73.5 57.5v26.1m-13-13.1h26"/><linearGradient id="SVGID_8_" gradientUnits="userSpaceOnUse" x1="23.753" y1="440.316" x2="74.488" y2="440.316" gradientTransform="translate(0 -345.41)"><stop offset="0" stop-color="#0069FF"/><stop offset="1" stop-color="#00D688"/></linearGradient><path class="st5" d="M73.5 119.3c-27 0-48.7-21.9-48.7-48.7"/><linearGradient id="SVGID_9_" gradientUnits="userSpaceOnUse" x1="72.488" y1="391.58" x2="123.224" y2="391.58" gradientTransform="translate(0 -345.41)"><stop offset="0" stop-color="#00D688"/><stop offset="1" stop-color="#0069FF"/></linearGradient><path class="st6" d="M73.5 21.8c27 0 48.7 21.9 48.7 48.7"/><linearGradient id="SVGID_10_" gradientUnits="userSpaceOnUse" x1="72.505" y1="356.326" x2="125.229" y2="356.326" gradientTransform="translate(0 -345.41)"><stop offset="0" stop-color="#00D688"/><stop offset="1" stop-color="#0069FF"/></linearGradient><linearGradient id="SVGID_11_" gradientUnits="userSpaceOnUse" x1="72.538" y1="385.17" x2="134.123" y2="385.17" gradientTransform="translate(0 -345.41)"><stop offset="0" stop-color="#00D688"/><stop offset="1" stop-color="#0069FF"/></linearGradient><path class="st8" d="M78.2 11.2c30 2.3 53.7 26.8 54.8 57.1"/><linearGradient id="SVGID_12_" gradientUnits="userSpaceOnUse" x1="81.409" y1="415.948" x2="134.132" y2="415.948" gradientTransform="translate(0 -345.41)"><stop offset="0" stop-color="#00D688"/><stop offset="1" stop-color="#0069FF"/></linearGradient><linearGradient id="SVGID_13_" gradientUnits="userSpaceOnUse" x1="21.781" y1="475.57" x2="74.505" y2="475.57" gradientTransform="translate(0 -345.41)"><stop offset="0" stop-color="#0069FF"/><stop offset="1" stop-color="#00D688"/></linearGradient><linearGradient id="SVGID_14_" gradientUnits="userSpaceOnUse" x1="12.892" y1="446.929" x2="74.477" y2="446.929" gradientTransform="translate(0 -345.41)"><stop offset="0" stop-color="#0069FF"/><stop offset="1" stop-color="#00D688"/></linearGradient><path class="st11" d="M68.8 130.1c-30-2.3-53.7-26.8-54.8-57.1"/><linearGradient id="SVGID_15_" gradientUnits="userSpaceOnUse" x1="12.895" y1="415.948" x2="65.619" y2="415.948" gradientTransform="translate(0 -345.41)"><stop offset="0" stop-color="#0069FF"/><stop offset="1" stop-color="#00D688"/></linearGradient><defs><circle id="SVGID_16_" cx="113" cy="110.6" r="30.6"/></defs><clipPath id="SVGID_17_"><use xlink:href="#SVGID_16_" overflow="visible"/></clipPath><linearGradient id="SVGID_18_" gradientUnits="userSpaceOnUse" x1="87.732" y1="473.637" x2="138.299" y2="473.637" gradientTransform="translate(0 -345.41)"><stop offset="0" stop-color="#0069FF"/><stop offset="1" stop-color="#0069FF" stop-opacity=".2"/></linearGradient><path class="st13" d="M112.9 115.5c-10.7 0-25.2 6.8-25.1 25.4l50.6-.2c-.2-18.5-14.8-25.2-25.5-25.2z"/><defs><circle id="SVGID_19_" cx="113" cy="110.6" r="30.6"/></defs><clipPath id="SVGID_20_"><use xlink:href="#SVGID_19_" overflow="visible"/></clipPath><linearGradient id="SVGID_21_" gradientUnits="userSpaceOnUse" x1="100.349" y1="450.846" x2="126.05" y2="450.846" gradientTransform="translate(0 -345.41)"><stop offset="0" stop-color="#0069FF"/><stop offset="1" stop-color="#0069FF" stop-opacity=".2"/></linearGradient><circle class="st14" cx="113.2" cy="105.4" r="12.8"/><path class="st0" d="M113 85.8c13.6 0 24.8 11.2 24.8 24.8s-11.2 24.8-24.8 24.8-24.8-11.1-24.8-24.8S99.3 85.8 113 85.8m0-5.9c-16.9 0-30.6 13.8-30.6 30.7s13.7 30.6 30.6 30.6 30.6-13.7 30.6-30.6-13.7-30.7-30.6-30.7z"/><linearGradient id="SVGID_22_" gradientUnits="userSpaceOnUse" x1="81.09" y1="456.035" x2="144.939" y2="456.035" gradientTransform="translate(0 -345.41)"><stop offset="0" stop-color="#00D688"/><stop offset="1" stop-color="#0069FF"/></linearGradient><circle class="st15" cx="113" cy="110.6" r="30.6"/></svg>